{
	"asset":{
		"generator":"Khronos glTF Blender I/O v4.0.44",
		"version":"2.0"
	},
	"extensionsUsed":[
		"KHR_materials_emissive_strength"
	],
	"scene":0,
	"scenes":[
		{
			"name":"Scene",
			"nodes":[
				0,
				1,
				2,
				3,
				4,
				5,
				6
			]
		}
	],
	"nodes":[
		{
			"mesh":0,
			"name":"Cylinder.001",
			"rotation":[
				0.6976123452186584,
				0,
				0,
				0.7164754271507263
			],
			"scale":[
				1.3960191011428833,
				0.9725300073623657,
				1.3957635164260864
			],
			"translation":[
				1.8722747564315796,
				1.1897298097610474,
				-3.700247049331665
			]
		},
		{
			"mesh":1,
			"name":"Cylinder.003",
			"rotation":[
				-0.7158419489860535,
				0,
				0,
				0.6982623338699341
			],
			"scale":[
				1.2184208631515503,
				1.2184208631515503,
				1.2184208631515503
			],
			"translation":[
				2.8636608123779297,
				1.2425591945648193,
				-2.3124442100524902
			]
		},
		{
			"mesh":2,
			"name":"Cylinder",
			"rotation":[
				-0.7054945826530457,
				0,
				0,
				0.7087153196334839
			],
			"scale":[
				0.8684940934181213,
				3.2720870971679688,
				0.8743999600410461
			],
			"translation":[
				1.9287976026535034,
				2.2166836261749268,
				1.9429388046264648
			]
		},
		{
			"mesh":3,
			"name":"Cylinder.005",
			"rotation":[
				0.00295407441444695,
				0.7137572169303894,
				-0.7003805637359619,
				0.0030104941688477993
			],
			"scale":[
				1.019593358039856,
				1.0195934772491455,
				1.0195937156677246
			],
			"translation":[
				2.153902053833008,
				1.5030829906463623,
				5.246488571166992
			]
		},
		{
			"mesh":4,
			"name":"Cylinder.010",
			"rotation":[
				0.0004345511842984706,
				-0.7164753079414368,
				0.6976121664047241,
				0.00044630130287259817
			],
			"scale":[
				1.3985241651535034,
				0.9012702107429504,
				1.3982338905334473
			],
			"translation":[
				1.9521421194076538,
				1.1897298097610474,
				7.742295742034912
			]
		},
		{
			"mesh":5,
			"name":"Cylinder.011",
			"rotation":[
				-0.0004459066840354353,
				-0.6982622146606445,
				-0.7158418297767639,
				0.0004349561349954456
			],
			"scale":[
				1.2184208631515503,
				1.2184208631515503,
				1.2184208631515503
			],
			"translation":[
				1.004823923110962,
				1.2425591945648193,
				6.448584079742432
			]
		},
		{
			"mesh":6,
			"name":"Plane",
			"scale":[
				52.76077651977539,
				52.76077651977539,
				52.76077651977539
			],
			"translation":[
				5.180412292480469,
				0.42332667112350464,
				1.7047839164733887
			]
		}
	],
	"materials":[
		{
			"doubleSided":true,
			"emissiveFactor":[
				0.92210574815131,
				0.9999997615814209,
				0
			],
			"name":"Material.002",
			"pbrMetallicRoughness":{
				"baseColorFactor":[
					0.804194450378418,
					0.6766373515129089,
					0.665208101272583,
					0.9054545164108276
				],
				"roughnessFactor":0.5727267861366272
			}
		},
		{
			"doubleSided":true,
			"name":"Material.001",
			"pbrMetallicRoughness":{
				"baseColorFactor":[
					0.800000011920929,
					0.800000011920929,
					0.800000011920929,
					1
				],
				"roughnessFactor":0.5
			}
		},
		{
			"doubleSided":true,
			"emissiveFactor":[
				1,
				0,
				0.0032134288921952248
			],
			"extensions":{
				"KHR_materials_emissive_strength":{
					"emissiveStrength":3
				}
			},
			"name":"Material.005",
			"pbrMetallicRoughness":{
				"baseColorFactor":[
					0.8001105785369873,
					0.7519848346710205,
					0.6974388360977173,
					1
				],
				"roughnessFactor":0.5
			}
		},
		{
			"doubleSided":true,
			"name":"Material.004",
			"pbrMetallicRoughness":{
				"baseColorFactor":[
					0.800000011920929,
					0.800000011920929,
					0.800000011920929,
					1
				],
				"roughnessFactor":0.5
			}
		}
	],
	"meshes":[
		{
			"name":"Cylinder.003",
			"primitives":[
				{
					"attributes":{
						"POSITION":0,
						"NORMAL":1,
						"TEXCOORD_0":2
					},
					"indices":3
				}
			]
		},
		{
			"name":"Cylinder.005",
			"primitives":[
				{
					"attributes":{
						"POSITION":4,
						"NORMAL":5,
						"TEXCOORD_0":6
					},
					"indices":7
				}
			]
		},
		{
			"name":"Cylinder.007",
			"primitives":[
				{
					"attributes":{
						"POSITION":8,
						"NORMAL":9,
						"TEXCOORD_0":10
					},
					"indices":11,
					"material":0
				},
				{
					"attributes":{
						"POSITION":12,
						"NORMAL":13,
						"TEXCOORD_0":14
					},
					"indices":15,
					"material":1
				},
				{
					"attributes":{
						"POSITION":16,
						"NORMAL":17,
						"TEXCOORD_0":18
					},
					"indices":19,
					"material":2
				},
				{
					"attributes":{
						"POSITION":20,
						"NORMAL":21,
						"TEXCOORD_0":22
					},
					"indices":23,
					"material":3
				}
			]
		},
		{
			"name":"Cylinder.013",
			"primitives":[
				{
					"attributes":{
						"POSITION":24,
						"NORMAL":25,
						"TEXCOORD_0":26
					},
					"indices":27
				}
			]
		},
		{
			"name":"Cylinder.011",
			"primitives":[
				{
					"attributes":{
						"POSITION":28,
						"NORMAL":29,
						"TEXCOORD_0":30
					},
					"indices":3
				}
			]
		},
		{
			"name":"Cylinder.012",
			"primitives":[
				{
					"attributes":{
						"POSITION":31,
						"NORMAL":32,
						"TEXCOORD_0":33
					},
					"indices":7
				}
			]
		},
		{
			"name":"Plane",
			"primitives":[
				{
					"attributes":{
						"POSITION":34,
						"NORMAL":35,
						"TEXCOORD_0":36
					},
					"indices":37
				}
			]
		}
	],
	"accessors":[
		{
			"bufferView":0,
			"componentType":5126,
			"count":960,
			"max":[
				1,
				1.2426536083221436,
				1.006391167640686
			],
			"min":[
				-1,
				-1,
				-1
			],
			"type":"VEC3"
		},
		{
			"bufferView":1,
			"componentType":5126,
			"count":960,
			"type":"VEC3"
		},
		{
			"bufferView":2,
			"componentType":5126,
			"count":960,
			"type":"VEC2"
		},
		{
			"bufferView":3,
			"componentType":5123,
			"count":1524,
			"type":"SCALAR"
		},
		{
			"bufferView":4,
			"componentType":5126,
			"count":192,
			"max":[
				0.20822381973266602,
				0.1019686907529831,
				1.007075309753418
			],
			"min":[
				-1.791776180267334,
				-0.10196822136640549,
				-1.007075309753418
			],
			"type":"VEC3"
		},
		{
			"bufferView":5,
			"componentType":5126,
			"count":192,
			"type":"VEC3"
		},
		{
			"bufferView":6,
			"componentType":5126,
			"count":192,
			"type":"VEC2"
		},
		{
			"bufferView":7,
			"componentType":5123,
			"count":372,
			"type":"SCALAR"
		},
		{
			"bufferView":8,
			"componentType":5126,
			"count":217,
			"max":[
				1.2327426671981812,
				0.9122297763824463,
				1.4007480144500732
			],
			"min":[
				-1.232777714729309,
				-0.9947001934051514,
				-1.0027170181274414
			],
			"type":"VEC3"
		},
		{
			"bufferView":9,
			"componentType":5126,
			"count":217,
			"type":"VEC3"
		},
		{
			"bufferView":10,
			"componentType":5126,
			"count":217,
			"type":"VEC2"
		},
		{
			"bufferView":11,
			"componentType":5123,
			"count":618,
			"type":"SCALAR"
		},
		{
			"bufferView":12,
			"componentType":5126,
			"count":455,
			"max":[
				1.2755467891693115,
				1.3011499643325806,
				1.4020479917526245
			],
			"min":[
				-1.3657809495925903,
				0.8151674866676331,
				-1.3527876138687134
			],
			"type":"VEC3"
		},
		{
			"bufferView":13,
			"componentType":5126,
			"count":455,
			"type":"VEC3"
		},
		{
			"bufferView":14,
			"componentType":5126,
			"count":455,
			"type":"VEC2"
		},
		{
			"bufferView":15,
			"componentType":5123,
			"count":939,
			"type":"SCALAR"
		},
		{
			"bufferView":16,
			"componentType":5126,
			"count":560,
			"max":[
				1.4739961624145508,
				1.2554833889007568,
				1.4695031642913818
			],
			"min":[
				-1.522148847579956,
				-1.341101884841919,
				-1.5471245050430298
			],
			"type":"VEC3"
		},
		{
			"bufferView":17,
			"componentType":5126,
			"count":560,
			"type":"VEC3"
		},
		{
			"bufferView":18,
			"componentType":5126,
			"count":560,
			"type":"VEC2"
		},
		{
			"bufferView":19,
			"componentType":5123,
			"count":1221,
			"type":"SCALAR"
		},
		{
			"bufferView":20,
			"componentType":5126,
			"count":457,
			"max":[
				1.3212631940841675,
				-0.8969846367835999,
				1.4588724374771118
			],
			"min":[
				-1.3275933265686035,
				-1.3850913047790527,
				-1.322298526763916
			],
			"type":"VEC3"
		},
		{
			"bufferView":21,
			"componentType":5126,
			"count":457,
			"type":"VEC3"
		},
		{
			"bufferView":22,
			"componentType":5126,
			"count":457,
			"type":"VEC2"
		},
		{
			"bufferView":23,
			"componentType":5123,
			"count":942,
			"type":"SCALAR"
		},
		{
			"bufferView":24,
			"componentType":5126,
			"count":892,
			"max":[
				1.4489476680755615,
				0.3966333270072937,
				1.4638069868087769
			],
			"min":[
				-1.013513207435608,
				-1.2079565525054932,
				-1.0113434791564941
			],
			"type":"VEC3"
		},
		{
			"bufferView":25,
			"componentType":5126,
			"count":892,
			"type":"VEC3"
		},
		{
			"bufferView":26,
			"componentType":5126,
			"count":892,
			"type":"VEC2"
		},
		{
			"bufferView":27,
			"componentType":5123,
			"count":1428,
			"type":"SCALAR"
		},
		{
			"bufferView":28,
			"componentType":5126,
			"count":960,
			"max":[
				1,
				1.2426536083221436,
				1.006391167640686
			],
			"min":[
				-1,
				-1,
				-1
			],
			"type":"VEC3"
		},
		{
			"bufferView":29,
			"componentType":5126,
			"count":960,
			"type":"VEC3"
		},
		{
			"bufferView":30,
			"componentType":5126,
			"count":960,
			"type":"VEC2"
		},
		{
			"bufferView":31,
			"componentType":5126,
			"count":192,
			"max":[
				0.20822381973266602,
				0.1019686907529831,
				1.007075309753418
			],
			"min":[
				-1.791776180267334,
				-0.10196822136640549,
				-1.007075309753418
			],
			"type":"VEC3"
		},
		{
			"bufferView":32,
			"componentType":5126,
			"count":192,
			"type":"VEC3"
		},
		{
			"bufferView":33,
			"componentType":5126,
			"count":192,
			"type":"VEC2"
		},
		{
			"bufferView":34,
			"componentType":5126,
			"count":4,
			"max":[
				1,
				0,
				1
			],
			"min":[
				-1,
				0,
				-1
			],
			"type":"VEC3"
		},
		{
			"bufferView":35,
			"componentType":5126,
			"count":4,
			"type":"VEC3"
		},
		{
			"bufferView":36,
			"componentType":5126,
			"count":4,
			"type":"VEC2"
		},
		{
			"bufferView":37,
			"componentType":5123,
			"count":6,
			"type":"SCALAR"
		}
	],
	"bufferViews":[
		{
			"buffer":0,
			"byteLength":11520,
			"byteOffset":0,
			"target":34962
		},
		{
			"buffer":0,
			"byteLength":11520,
			"byteOffset":11520,
			"target":34962
		},
		{
			"buffer":0,
			"byteLength":7680,
			"byteOffset":23040,
			"target":34962
		},
		{
			"buffer":0,
			"byteLength":3048,
			"byteOffset":30720,
			"target":34963
		},
		{
			"buffer":0,
			"byteLength":2304,
			"byteOffset":33768,
			"target":34962
		},
		{
			"buffer":0,
			"byteLength":2304,
			"byteOffset":36072,
			"target":34962
		},
		{
			"buffer":0,
			"byteLength":1536,
			"byteOffset":38376,
			"target":34962
		},
		{
			"buffer":0,
			"byteLength":744,
			"byteOffset":39912,
			"target":34963
		},
		{
			"buffer":0,
			"byteLength":2604,
			"byteOffset":40656,
			"target":34962
		},
		{
			"buffer":0,
			"byteLength":2604,
			"byteOffset":43260,
			"target":34962
		},
		{
			"buffer":0,
			"byteLength":1736,
			"byteOffset":45864,
			"target":34962
		},
		{
			"buffer":0,
			"byteLength":1236,
			"byteOffset":47600,
			"target":34963
		},
		{
			"buffer":0,
			"byteLength":5460,
			"byteOffset":48836,
			"target":34962
		},
		{
			"buffer":0,
			"byteLength":5460,
			"byteOffset":54296,
			"target":34962
		},
		{
			"buffer":0,
			"byteLength":3640,
			"byteOffset":59756,
			"target":34962
		},
		{
			"buffer":0,
			"byteLength":1878,
			"byteOffset":63396,
			"target":34963
		},
		{
			"buffer":0,
			"byteLength":6720,
			"byteOffset":65276,
			"target":34962
		},
		{
			"buffer":0,
			"byteLength":6720,
			"byteOffset":71996,
			"target":34962
		},
		{
			"buffer":0,
			"byteLength":4480,
			"byteOffset":78716,
			"target":34962
		},
		{
			"buffer":0,
			"byteLength":2442,
			"byteOffset":83196,
			"target":34963
		},
		{
			"buffer":0,
			"byteLength":5484,
			"byteOffset":85640,
			"target":34962
		},
		{
			"buffer":0,
			"byteLength":5484,
			"byteOffset":91124,
			"target":34962
		},
		{
			"buffer":0,
			"byteLength":3656,
			"byteOffset":96608,
			"target":34962
		},
		{
			"buffer":0,
			"byteLength":1884,
			"byteOffset":100264,
			"target":34963
		},
		{
			"buffer":0,
			"byteLength":10704,
			"byteOffset":102148,
			"target":34962
		},
		{
			"buffer":0,
			"byteLength":10704,
			"byteOffset":112852,
			"target":34962
		},
		{
			"buffer":0,
			"byteLength":7136,
			"byteOffset":123556,
			"target":34962
		},
		{
			"buffer":0,
			"byteLength":2856,
			"byteOffset":130692,
			"target":34963
		},
		{
			"buffer":0,
			"byteLength":11520,
			"byteOffset":133548,
			"target":34962
		},
		{
			"buffer":0,
			"byteLength":11520,
			"byteOffset":145068,
			"target":34962
		},
		{
			"buffer":0,
			"byteLength":7680,
			"byteOffset":156588,
			"target":34962
		},
		{
			"buffer":0,
			"byteLength":2304,
			"byteOffset":164268,
			"target":34962
		},
		{
			"buffer":0,
			"byteLength":2304,
			"byteOffset":166572,
			"target":34962
		},
		{
			"buffer":0,
			"byteLength":1536,
			"byteOffset":168876,
			"target":34962
		},
		{
			"buffer":0,
			"byteLength":48,
			"byteOffset":170412,
			"target":34962
		},
		{
			"buffer":0,
			"byteLength":48,
			"byteOffset":170460,
			"target":34962
		},
		{
			"buffer":0,
			"byteLength":32,
			"byteOffset":170508,
			"target":34962
		},
		{
			"buffer":0,
			"byteLength":12,
			"byteOffset":170540,
			"target":34963
		}
	],
	"buffers":[
		{
			"byteLength":170552,
			"uri":"colored-paddle.bin"
		}
	]
}
